PathFileType	4	(X/Y/Z)	C:/Users/beibeiliu/ov580/test_trc/User2\sequence.12_training_dense_left.trc
DataRate	CameraRate	NumFrames	NumMarkers	Units	OrigDataRate	OrigDataStartFrame	OrigNumFrames
120	120	22	19	mm	120	112	446
Frame#	Time	ThumbCMC			ThumbMCP			ThumbIP			ThumbTip			IndexMCP			IndexPIP			IndexTip			MiddleMCP			MiddlePIP			MiddleTip			RingMCP			RingPIP			RingTip			PinkyMCP			PinkyPIP			PinkyTip			BackHand1			BackHand2			BackHand3	
		X0	Y0	Z0	X1	Y1	Z1	X2	Y2	Z2	X3	Y3	Z3	X4	Y4	Z4	X5	Y5	Z5	X6	Y6	Z6	X7	Y7	Z7	X8	Y8	Z8	X9	Y9	Z9	X10	Y10	Z10	X11	Y11	Z11	X12	Y12	Z12	X13	Y13	Z13	X14	Y14	Z14	X15	Y15	Z15	X16	Y16	Z16	X17	Y17	Z17	X18	Y18	Z18	
111	0.925	-163.293	17.7902	125.902	-132.029	13.5306	110.233	-109.155	0.400068	86.0872	-96.7732	-17.7355	68.6588	-163.669	-7.22517	47.9739	-138.459	-21.8947	37.0807	-110.049	-37.2061	50.6483	-192.805	-24.6143	41.5279	-183.884	-37.9499	14.5238	-169.507	-50.8186	-14.3707	-201.59	-49.4423	55.6327	-199.769	-59.2264	30.0001	-191.176	-67.367	3.43783	-201.456	-68.3373	81.982	-203.899	-79.3943	57.3657	-208.692	-90.2591	30.9519	-209.497	-34.0863	106.201	-218.481	-23.8835	140.107	-204.862	1.74043	117.991	
112	0.933333	-167.49	23.8188	128.716	-135.676	19.805	107.971	-113.649	8.59099	85.331	-99.6174	-8.80091	66.2857	-169.078	0.058741	48.8462	-138.671	-10.9875	36.3323	-110.553	-26.5898	49.2911	-197.319	-24.3776	45.9123	-187.055	-27.8383	14.8627	-173.331	-39.0166	-12.1997	-203.803	-45.0938	54.0363	-201.573	-53.0637	29.2801	-192.354	-58.7502	1.93782	-201.467	-65.0307	76.2846	-201.719	-73.0525	55.3133	-205.244	-83.7551	28.9953	-211.612	-34.2905	111.318	-219.418	-25.228	138.936	-209.366	3.83023	116.683	
113	0.941667	-172.713	26.2151	125.652	-144.182	26.1107	108.477	-119.735	18.3138	81.8648	-107.946	0.844746	60.5942	-178.377	4.75009	49.4699	-147.774	-5.26944	33.7879	-118.26	-16.229	43.4122	-204.093	-21.3005	41.0516	-195.933	-21.9682	13.8877	-180.972	-33.9734	-18.4642	-209.789	-40.3726	52.8206	-207.12	-46.1537	28.1506	-199.878	-54.1162	-3.07665	-203.254	-62.1529	77.8783	-207.306	-73.182	50.6168	-211.059	-81.1388	26.6036	-214.472	-30.2832	108.037	-222.653	-29.3987	142.015	-213.387	5.33371	120.999	
114	0.95	-181.575	25.1867	128.647	-152.116	28.5613	101.377	-130.553	23.1633	74.675	-119.761	7.13109	58.1332	-189.701	8.03403	46.7362	-159.988	1.2381	30.9589	-132.848	-10.4035	36.3545	-212.842	-14.395	43.9039	-205.108	-21.7656	9.0042	-196.098	-24.816	-15.7503	-217.29	-41.8668	52.0173	-215.362	-45.0235	28.5761	-209.906	-48.8412	-1.14916	-205.978	-58.3383	77.1911	-210.32	-66.4693	50.3218	-215.518	-77.2784	27.6273	-217.039	-33.924	112.669	-223.168	-32.8123	139.621	-220.576	1.23305	122.209	
115	0.958333	-189.354	24.9158	122.798	-162.816	32.4058	101.715	-139.957	29.7919	69.3272	-130.703	13.6754	50.8625	-201.512	8.99436	45.3208	-171.18	4.8623	26.446	-143.214	-0.0752033	30.7372	-223.195	-19.8138	42.26	-216.799	-24.5809	7.62693	-208.14	-25.1087	-17.9167	-222.195	-39.5541	55.0283	-223.635	-46.3143	22.1237	-218.189	-48.4063	-4.56204	-211.655	-61.2727	71.8546	-213.763	-70.5523	48.5731	-220.744	-74.2018	22.8493	-220.957	-36.7553	108.713	-225.727	-32.4669	139.91	-225.064	3.27566	119.271	
116	0.966667	-198.828	25.8566	122.862	-173.619	35.494	92.5771	-153.481	35.668	66.9812	-144.088	16.841	45.4692	-211.582	4.48283	44.4673	-186.515	3.12949	24.8334	-152.509	3.625	27.6283	-230.83	-24.3924	43.455	-227.541	-24.9185	8.12009	-217.538	-31.6486	-21.2229	-226.43	-45.9971	54.1335	-228.901	-49.6469	22.6391	-225.472	-54.4452	-4.80037	-212.311	-61.636	69.4215	-215.236	-72.8473	48.0197	-222.47	-79.8814	24.2813	-226.119	-37.5346	107.365	-227.72	-39.901	139.785	-233.135	-2.34146	120.998	
117	0.975	-208.276	26.3181	120.71	-185.299	40.7655	90.1722	-167.559	39.5456	64.414	-155.031	24.7198	43.4747	-218.731	-0.542642	40.6498	-192.951	5.83478	22.2832	-160.451	8.71604	26.287	-234.698	-30.5445	43.0475	-230.488	-34.6049	9.98882	-221.706	-37.7403	-19.83	-227.374	-47.9634	51.6975	-229.182	-53.7079	26.3436	-225.525	-58.4932	-6.07408	-207.777	-66.1129	72.0115	-211.4	-75.479	45.5807	-219.559	-82.1659	22.3463	-225.3	-43.5151	104.921	-226.221	-38.4692	141.779	-236.934	-11.827	117.782	
118	0.983333	-216.765	21.4559	117.811	-196.246	39.2467	89.299	-177.676	39.4547	62.5998	-160.406	31.867	40.9429	-222.637	-2.6375	39.767	-195.105	5.27478	21.3868	-165.473	12.145	27.1331	-232.499	-33.9851	41.8809	-228.176	-36.4486	9.53877	-216.368	-40.5201	-22.3609	-220.856	-57.0162	48.8977	-220.419	-62.1914	25.1409	-216.931	-64.6398	-7.68075	-200.937	-67.0113	71.7394	-201.498	-77.2023	48.4045	-207.261	-83.9711	23.356	-222.374	-49.2177	108.088	-225.429	-45.028	141.175	-240.223	-13.1822	119.333	
119	0.991667	-222.421	19.527	116.743	-203.706	41.8594	90.3565	-181.723	45.1577	63.067	-162.228	34.0681	45.9688	-219.932	-4.42262	41.8562	-193.643	5.4473	22.9851	-162.009	18.4207	31.429	-222.017	-39.8962	39.2439	-213.623	-41.0203	5.33329	-201.413	-42.2565	-24.3949	-210.295	-57.289	50.0453	-206.935	-60.4611	23.2356	-198.442	-64.6304	-3.53278	-190.745	-65.5603	72.1088	-185.597	-76.3915	48.5228	-186.756	-82.5438	22.9246	-217.815	-51.7886	104.231	-222.892	-49.0185	138.062	-240.249	-21.7394	117.486	
120	1	-227.252	20.6148	118.324	-206.795	39.062	96.3803	-181.973	44.9504	69.4786	-162.642	39.9615	54.9322	-209.972	-6.7445	39.1362	-185.901	5.18322	26.1503	-158.788	23.2426	34.5054	-210.473	-39.6805	42.7021	-199.52	-38.6649	7.82791	-184.543	-39.4621	-17.7686	-199.221	-53.5307	54.9751	-190.772	-58.9896	27.9084	-178.268	-62.6523	-3.21135	-180.613	-62.0412	72.2606	-172.353	-70.9564	47.663	-167.658	-78.5305	30.5831	-211.444	-51.7927	109.175	-219.877	-49.7001	139.009	-239.136	-21.501	110.657	
121	1.00833	-227.539	20.9298	117.24	-207.603	41.4053	98.1705	-183.226	48.6458	71.1869	-159.165	40.6474	52.9305	-204.714	-7.51728	40.9412	-181.117	6.23755	27.2855	-152.291	24.5895	41.2457	-203.629	-38.4365	38.2464	-194.753	-35.4749	11.015	-175.762	-37.6162	-15.8693	-188.64	-55.5392	55.4727	-178.692	-60.3073	28.3485	-166.84	-59.242	0.762066	-172.727	-60.9226	77.9709	-161.998	-68.4646	53.7593	-153.77	-73.9155	31.6102	-207.171	-49.6668	105.581	-218.009	-49.9444	140.39	-237.146	-24.5723	112.607	
122	1.01667	-224.266	17.5476	120.205	-206.072	40.3275	95.9388	-181.213	52.0158	68.6572	-159.531	42.609	53.1666	-205.068	-5.60352	38.5391	-182.902	7.63673	26.154	-157.578	26.2309	36.6324	-205.159	-38.2722	39.2155	-194.374	-35.6777	8.32457	-177.518	-32.0249	-20.7665	-188.471	-55.2159	51.6987	-179.21	-59.3218	25.2687	-166.951	-57.1093	0.614453	-170.867	-62.333	71.9662	-161.801	-65.7059	51.367	-154.572	-67.8526	26.3644	-204.344	-51.7168	104.224	-218.283	-51.0808	138.398	-235.891	-22.2416	112.212	
123	1.025	-226.148	20.9484	116.03	-206.305	41.4879	92.3521	-183.299	49.1125	67.7163	-161.628	45.3152	52.0303	-211.849	-3.7216	39.4539	-183.078	8.75525	23.4205	-157.628	28.2129	37.744	-210.209	-37.0128	37.9433	-197.353	-38.5025	6.60876	-184.055	-32.1255	-21.817	-195.222	-52.0556	52.7688	-184.749	-58.1649	22.9356	-173.82	-54.5993	-5.62596	-175.218	-59.2404	73.3207	-166.199	-64.432	45.9141	-158.488	-71.5377	25.6028	-206.771	-51.2105	107.825	-218.85	-48.8886	134.75	-235.223	-25.7149	114.651	
124	1.03333	-226.451	17.991	115.595	-208.11	38.1005	93.7486	-186.759	50.6202	64.9927	-165.888	43.6423	50.2765	-212.61	-8.15974	39.5051	-188.084	4.36487	23.2235	-160.936	23.7211	34.4726	-214.269	-37.1867	38.1432	-201.41	-39.4056	4.2259	-189.111	-34.3688	-23.4576	-196.424	-55.2978	51.5181	-191.039	-58.0932	23.5406	-180.08	-53.4571	-8.81744	-175.154	-61.9773	72.0825	-168.188	-66.4921	43.1475	-162.787	-72.5269	20.0047	-210.086	-50.4622	102.731	-218.505	-51.8044	137.63	-235.46	-24.7253	114.504	
125	1.04167	-229.216	16.7191	115.336	-212.355	40.6366	94.5751	-189.994	49.8383	67.0601	-169.147	43.2276	49.2857	-214.81	-8.50191	39.6024	-190.569	6.59051	21.5871	-161.658	24.3044	33.736	-212.054	-39.2887	34.1743	-200.153	-40.1534	4.45708	-185.691	-37.0806	-24.747	-195.302	-57.1306	50.0237	-189.936	-57.6008	18.261	-177.551	-57.7722	-7.91042	-174.935	-61.5473	71.902	-168.629	-67.6019	44.1041	-161.282	-73.6272	22.1739	-207.106	-53.706	103.56	-217.931	-52.8945	133.788	-236.155	-26.7428	112.452	
126	1.05	-227.778	16.7329	115.927	-211.381	37.4641	96.4403	-187.674	49.203	65.6972	-166.259	43.2581	51.1408	-206.89	-7.03712	36.6217	-183.531	8.01146	24.1805	-154.396	25.4946	39.3826	-204.716	-40.1309	40.7564	-195.527	-37.2252	9.1822	-179.458	-34.5898	-19.3956	-188.858	-56.9442	47.6636	-181.146	-57.2513	23.2	-170.865	-55.318	-2.96756	-170.474	-62.886	75.1383	-164.98	-65.2161	49.9808	-154.159	-71.017	24.8066	-205.933	-53.94	102.248	-215.676	-51.4706	138.248	-233.538	-30.4837	109.885	
127	1.05833	-226.42	15.9958	117.647	-208.511	42.1724	97.8954	-183.654	48.5519	73.2776	-159.012	44.8877	53.3894	-197.561	-7.03428	40.9497	-175.68	9.90019	29.1656	-147.57	28.8919	44.6336	-197.309	-35.6309	37.8112	-181.565	-34.8251	9.976	-162.78	-32.0421	-16.9675	-182.011	-53.0373	51.8615	-170.247	-55.4868	28.4477	-158.815	-49.8556	-2.36325	-164.226	-60.8963	78.7731	-153.283	-66.4341	54.9145	-144.545	-66.8837	28.6759	-203.062	-51.0435	108.802	-214.413	-53.4235	134.728	-229.219	-30.8045	109.84	
128	1.06667	-223.397	16.0341	120.347	-204.679	41.8392	101.247	-178.283	50.6499	77.0651	-155.189	49.6803	63.5073	-192.489	-5.80018	46.3459	-166.155	12.8403	34.2714	-146.86	32.5198	47.4451	-187.014	-34.7909	41.2961	-173.186	-31.6025	13.1134	-150.588	-28.1101	-9.90553	-172.739	-51.2794	54.2577	-161.654	-51.8583	33.3321	-145.582	-45.9945	3.70964	-160.211	-55.4185	83.3669	-145.236	-62.5341	57.8471	-135.055	-61.0065	31.2135	-196.506	-50.4299	108.792	-211.896	-53.6252	139.353	-228.87	-28.0191	113.703	
129	1.075	-222.114	17.3246	120.991	-202.66	41.7506	102.824	-176.057	52.2583	77.302	-155.482	50.3734	68.182	-192.723	-1.20422	47.8859	-163.353	18.2465	36.1448	-144.28	35.6215	49.9349	-182.868	-34.7516	46.2722	-167.558	-29.0643	15.1068	-146.611	-25.1855	-8.36483	-167.817	-48.8745	57.352	-154.999	-50.1608	34.0949	-139.234	-43.8613	8.20692	-154.511	-55.4737	84.6551	-141.943	-57.1053	59.1229	-130.472	-58.225	34.2396	-194.609	-49.6248	110.673	-210.645	-51.2879	139.032	-225.643	-25.6952	112.08	
130	1.08333	-222.34	15.7968	118.864	-205.948	42.2032	98.286	-180.559	54.3574	76.3554	-158.074	52.8829	62.3005	-195.52	-1.59153	46.8277	-167.263	16.0139	33.7421	-144.9	36.5728	50.5795	-186.84	-32.7178	43.6746	-170.944	-30.0664	15.3398	-151.149	-23.0882	-9.01	-169.156	-48.8254	60.4958	-157.196	-45.7461	29.1925	-140.776	-41.1052	3.86028	-153.985	-51.7999	80.0067	-141.547	-53.2366	57.8497	-128.773	-55.7447	34.541	-191.486	-51.5753	107.479	-205.045	-50.7371	139.67	-225.343	-27.8485	115.501	
131	1.09167	-224.506	12.5763	120.57	-211.806	39.5226	98.2516	-190.986	54.515	74.6855	-166.21	51.5191	59.329	-199.018	-4.80449	43.0806	-178.423	12.887	29.4088	-154.429	32.9734	44.0658	-190.843	-36.7808	40.7073	-177.16	-32.3895	11.6205	-156.607	-25.6737	-15.0264	-171.172	-48.2939	55.4356	-159.635	-49.2101	27.7253	-146.467	-43.3681	3.31353	-156.723	-48.9761	77.0256	-141.773	-52.5101	53.8406	-131.414	-57.0866	28.5598	-189.543	-51.7023	110.282	-204.88	-51.7991	138.897	-223.999	-31.2512	116.807	
132	1.1	-228.693	9.11617	117.783	-220.283	38.5642	93.7281	-201.294	50.7057	66.9043	-179.229	50.2639	52.5849	-205.569	-11.8758	42.7965	-184.833	7.91194	26.196	-166.472	32.5074	37.444	-196.079	-41.5227	39.1994	-183.531	-39.0687	9.25516	-167.651	-31.2386	-20.5564	-178.653	-49.4143	51.0713	-166.171	-51.3512	23.7594	-159.631	-45.4242	-2.38671	-158.719	-49.2673	73.6096	-146.593	-52.6674	47.3381	-137.627	-56.7131	23.9615	-189.846	-49.9944	106.653	-201.795	-51.3298	142.989	-225.562	-34.6323	112.235	
